<svg width="21" height="20" viewBox="0 0 21 20" fill="none" xmlns="http://www.w3.org/2000/svg">
<path d="M18.4663 4.16667V5.83333H15.9553V8.33333H14.2813V5.83333H11.7703V4.16667H14.2813V1.66667H15.9553V4.16667H18.4663ZM15.9553 15.8333H4.23745V4.16667H9.25938V2.5H4.23745C3.31677 2.5 2.56348 3.25 2.56348 4.16667V15.8333C2.56348 16.75 3.31677 17.5 4.23745 17.5H15.9553C16.876 17.5 17.6293 16.75 17.6293 15.8333V10.8333H15.9553V15.8333ZM12.6073 10.8333V14.1667H14.2813V10.8333H12.6073ZM9.25938 14.1667H10.9334V7.5H9.25938V14.1667ZM7.58541 14.1667V9.16667H5.91143V14.1667H7.58541Z" fill="#1890FF"/>
</svg>
