<svg width="20" height="20" viewBox="0 0 20 20" fill="none" xmlns="http://www.w3.org/2000/svg">
<path fill-rule="evenodd" clip-rule="evenodd" d="M18.7502 15.8333H15.8335V3.33333C15.8335 2.8731 15.4604 2.5 15.0002 2.5H5.00016C4.53992 2.5 4.16683 2.8731 4.16683 3.33333V15.8333H1.25016C1.02004 15.8333 0.833496 16.0199 0.833496 16.25V17.0833C0.833496 17.3135 1.02004 17.5 1.25016 17.5H18.7502C18.9803 17.5 19.1668 17.3135 19.1668 17.0833V16.25C19.1668 16.0199 18.9803 15.8333 18.7502 15.8333ZM13.7502 9.16667H12.9168C12.6867 9.16667 12.5002 8.98012 12.5002 8.75V7.91667C12.5002 7.68655 12.6867 7.5 12.9168 7.5H13.7502C13.9803 7.5 14.1668 7.68655 14.1668 7.91667V8.75C14.1668 8.98012 13.9803 9.16667 13.7502 9.16667ZM6.25016 9.16667H7.0835C7.31361 9.16667 7.50016 8.98012 7.50016 8.75V7.91667C7.50016 7.68655 7.31361 7.5 7.0835 7.5H6.25016C6.02004 7.5 5.8335 7.68655 5.8335 7.91667V8.75C5.8335 8.98012 6.02004 9.16667 6.25016 9.16667ZM7.50016 11.25V12.0833C7.50016 12.3135 7.31361 12.5 7.0835 12.5H6.25016C6.02004 12.5 5.8335 12.3135 5.8335 12.0833V11.25C5.8335 11.0199 6.02004 10.8333 6.25016 10.8333H7.0835C7.31361 10.8333 7.50016 11.0199 7.50016 11.25ZM13.7502 10.8333H12.9168C12.6867 10.8333 12.5002 11.0199 12.5002 11.25V12.0833C12.5002 12.3135 12.6867 12.5 12.9168 12.5H13.7502C13.9803 12.5 14.1668 12.3135 14.1668 12.0833V11.25C14.1668 11.0199 13.9803 10.8333 13.7502 10.8333ZM13.7502 5.83333H12.9168C12.6867 5.83333 12.5002 5.64679 12.5002 5.41667V4.58333C12.5002 4.35322 12.6867 4.16667 12.9168 4.16667H13.7502C13.9803 4.16667 14.1668 4.35322 14.1668 4.58333V5.41667C14.1668 5.64679 13.9803 5.83333 13.7502 5.83333ZM7.50016 5.41667V4.58333C7.50016 4.35322 7.31361 4.16667 7.0835 4.16667H6.25016C6.02004 4.16667 5.8335 4.35322 5.8335 4.58333V5.41667C5.8335 5.64679 6.02004 5.83333 6.25016 5.83333H7.0835C7.31361 5.83333 7.50016 5.64679 7.50016 5.41667ZM6.25016 14.1667H13.7502C13.9803 14.1667 14.1668 14.3532 14.1668 14.5833V15.8333H5.8335V14.5833C5.8335 14.3532 6.02004 14.1667 6.25016 14.1667ZM9.5835 9.16667H10.4168C10.6469 9.16667 10.8335 8.98012 10.8335 8.75V7.91667C10.8335 7.68655 10.6469 7.5 10.4168 7.5H9.5835C9.35338 7.5 9.16683 7.68655 9.16683 7.91667V8.75C9.16683 8.98012 9.35338 9.16667 9.5835 9.16667ZM9.5835 10.8333H10.4168C10.6469 10.8333 10.8335 11.0199 10.8335 11.25V12.0833C10.8335 12.3135 10.6469 12.5 10.4168 12.5H9.5835C9.35338 12.5 9.16683 12.3135 9.16683 12.0833V11.25C9.16683 11.0199 9.35338 10.8333 9.5835 10.8333ZM9.5835 5.83333H10.4168C10.6469 5.83333 10.8335 5.64679 10.8335 5.41667V4.58333C10.8335 4.35322 10.6469 4.16667 10.4168 4.16667H9.5835C9.35338 4.16667 9.16683 4.35322 9.16683 4.58333V5.41667C9.16683 5.64679 9.35338 5.83333 9.5835 5.83333Z" fill="#1890FF"/>
</svg>
