<svg width="123" height="22" viewBox="0 0 123 22" fill="none" xmlns="http://www.w3.org/2000/svg">
<path d="M0 14.0347L8.73325 3.01734H0.218044V0H13.14V2.85549L4.29203 14.0347H13.163V17.0405H0V14.0347Z" fill="white"/>
<path d="M22.1946 10.9133C21.9881 11.0443 21.7777 11.1522 21.5634 11.237C21.3569 11.3141 21.07 11.3873 20.7027 11.4566L19.9683 11.5954C19.2797 11.7187 18.7862 11.869 18.4879 12.0462C17.9829 12.3468 17.7305 12.8131 17.7305 13.4451C17.7305 14.0077 17.8835 14.4162 18.1895 14.6705C18.5032 14.9171 18.8819 15.0405 19.3256 15.0405C20.0295 15.0405 20.676 14.8324 21.2651 14.4162C21.8618 14 22.1717 13.2408 22.1946 12.1387V10.9133ZM20.2093 9.37572C20.8137 9.29865 21.2459 9.20231 21.5061 9.08671C21.9728 8.88632 22.2061 8.57418 22.2061 8.15029C22.2061 7.63391 22.0263 7.27938 21.6667 7.08671C21.3148 6.88632 20.7946 6.78613 20.106 6.78613C19.3333 6.78613 18.7862 6.97881 18.4649 7.36416C18.2354 7.64933 18.0824 8.03468 18.0059 8.52023H14.85C14.9188 7.41811 15.2249 6.51252 15.7681 5.80347C16.6326 4.69364 18.1168 4.13873 20.2208 4.13873C21.5902 4.13873 22.8067 4.41233 23.8701 4.95954C24.9336 5.50674 25.4653 6.5395 25.4653 8.0578V13.8382C25.4653 14.2389 25.4729 14.7245 25.4882 15.2948C25.5112 15.7264 25.5762 16.0193 25.6833 16.1734C25.7904 16.3276 25.9511 16.4547 26.1653 16.5549V17.0405H22.6078C22.5083 16.7861 22.4394 16.5472 22.4012 16.3237C22.3629 16.1002 22.3323 15.8459 22.3094 15.5607C21.858 16.0539 21.3377 16.474 20.7486 16.8208C20.0448 17.2293 19.2491 17.4335 18.3616 17.4335C17.2293 17.4335 16.2921 17.1098 15.55 16.4624C14.8155 15.8073 14.4483 14.8825 14.4483 13.6879C14.4483 12.1387 15.0412 11.0173 16.2271 10.3237C16.8774 9.94605 17.8337 9.6763 19.0961 9.51445L20.2093 9.37572Z" fill="white"/>
<path d="M35.174 4.13873C35.2352 4.13873 35.2849 4.14258 35.3232 4.15029C35.3691 4.15029 35.4647 4.15414 35.6101 4.16185V7.53757C35.4035 7.51445 35.2199 7.49904 35.0592 7.49133C34.8986 7.48362 34.7685 7.47977 34.6691 7.47977C33.3531 7.47977 32.4695 7.91137 32.0181 8.77457C31.7656 9.26012 31.6394 10.0077 31.6394 11.0173V17.0405H28.3458V4.43931H31.4673V6.63584C31.9722 5.79576 32.4121 5.22158 32.787 4.91329C33.399 4.39692 34.1947 4.13873 35.174 4.13873Z" fill="white"/>
<path d="M46.1566 10.7399C46.1566 9.76879 45.9347 8.90944 45.491 8.16185C45.0549 7.41426 44.3433 7.04046 43.3564 7.04046C42.1706 7.04046 41.3558 7.60694 40.912 8.73988C40.6825 9.34104 40.5677 10.104 40.5677 11.0289C40.5677 12.4933 40.9541 13.5222 41.7268 14.1156C42.1859 14.4624 42.7291 14.6358 43.3564 14.6358C44.2668 14.6358 44.9592 14.2813 45.4336 13.5723C45.9156 12.8632 46.1566 11.9191 46.1566 10.7399ZM44.2974 4.16185C45.7587 4.16185 46.9943 4.7052 48.0042 5.79191C49.0217 6.87861 49.5305 8.47399 49.5305 10.578C49.5305 12.7977 49.0332 14.4894 48.0386 15.6532C47.0517 16.817 45.7779 17.3988 44.2171 17.3988C43.2225 17.3988 42.3963 17.1484 41.7383 16.6474C41.3787 16.3699 41.0268 15.9653 40.6825 15.4335V22H37.4463V4.43931H40.5792V6.30058C40.9311 5.75337 41.306 5.32177 41.7039 5.00578C42.4307 4.44316 43.2952 4.16185 44.2974 4.16185Z" fill="white"/>
<path d="M55.2456 17.0405H51.9749V0H55.2456V17.0405Z" fill="white"/>
<path d="M65.3445 10.9133C65.1379 11.0443 64.9275 11.1522 64.7133 11.237C64.5067 11.3141 64.2198 11.3873 63.8526 11.4566L63.1181 11.5954C62.4296 11.7187 61.9361 11.869 61.6377 12.0462C61.1328 12.3468 60.8803 12.8131 60.8803 13.4451C60.8803 14.0077 61.0333 14.4162 61.3393 14.6705C61.653 14.9171 62.0317 15.0405 62.4755 15.0405C63.1793 15.0405 63.8258 14.8324 64.4149 14.4162C65.0117 14 65.3215 13.2408 65.3445 12.1387V10.9133ZM63.3591 9.37572C63.9635 9.29865 64.3958 9.20231 64.6559 9.08671C65.1226 8.88632 65.3559 8.57418 65.3559 8.15029C65.3559 7.63391 65.1762 7.27938 64.8166 7.08671C64.4646 6.88632 63.9444 6.78613 63.2558 6.78613C62.4831 6.78613 61.9361 6.97881 61.6148 7.36416C61.3852 7.64933 61.2322 8.03468 61.1557 8.52023H57.9998C58.0687 7.41811 58.3747 6.51252 58.9179 5.80347C59.7824 4.69364 61.2667 4.13873 63.3706 4.13873C64.7401 4.13873 65.9565 4.41233 67.02 4.95954C68.0834 5.50674 68.6151 6.5395 68.6151 8.0578V13.8382C68.6151 14.2389 68.6228 14.7245 68.6381 15.2948C68.661 15.7264 68.7261 16.0193 68.8332 16.1734C68.9403 16.3276 69.101 16.4547 69.3152 16.5549V17.0405H65.7576C65.6581 16.7861 65.5893 16.5472 65.551 16.3237C65.5128 16.1002 65.4822 15.8459 65.4592 15.5607C65.0078 16.0539 64.4876 16.474 63.8985 16.8208C63.1946 17.2293 62.399 17.4335 61.5115 17.4335C60.3792 17.4335 59.442 17.1098 58.6999 16.4624C57.9654 15.8073 57.5982 14.8825 57.5982 13.6879C57.5982 12.1387 58.1911 11.0173 59.3769 10.3237C60.0272 9.94605 60.9836 9.6763 62.2459 9.51445L63.3591 9.37572Z" fill="white"/>
<path d="M70.2447 6.90173V4.55491H71.9891V1.04046H75.2253V4.55491H77.2566V6.90173H75.2253V13.5607C75.2253 14.0771 75.2904 14.4008 75.4204 14.5318C75.5505 14.6551 75.9483 14.7168 76.6139 14.7168C76.7134 14.7168 76.8167 14.7168 76.9238 14.7168C77.0385 14.7091 77.1495 14.7013 77.2566 14.6936V17.1561L75.7073 17.2139C74.1619 17.2678 73.1061 16.9981 72.5399 16.4046C72.1727 16.027 71.9891 15.4451 71.9891 14.659V6.90173H70.2447Z" fill="white"/>
<path d="M86.2538 10.9133C86.0472 11.0443 85.8368 11.1522 85.6226 11.237C85.416 11.3141 85.1291 11.3873 84.7619 11.4566L84.0274 11.5954C83.3389 11.7187 82.8454 11.869 82.547 12.0462C82.0421 12.3468 81.7896 12.8131 81.7896 13.4451C81.7896 14.0077 81.9426 14.4162 82.2486 14.6705C82.5623 14.9171 82.941 15.0405 83.3848 15.0405C84.0886 15.0405 84.7351 14.8324 85.3242 14.4162C85.921 14 86.2308 13.2408 86.2538 12.1387V10.9133ZM84.2684 9.37572C84.8728 9.29865 85.3051 9.20231 85.5652 9.08671C86.0319 8.88632 86.2653 8.57418 86.2653 8.15029C86.2653 7.63391 86.0855 7.27938 85.7259 7.08671C85.374 6.88632 84.8537 6.78613 84.1651 6.78613C83.3924 6.78613 82.8454 6.97881 82.5241 7.36416C82.2946 7.64933 82.1415 8.03468 82.065 8.52023H78.9091C78.978 7.41811 79.284 6.51252 79.8272 5.80347C80.6917 4.69364 82.176 4.13873 84.2799 4.13873C85.6494 4.13873 86.8658 4.41233 87.9293 4.95954C88.9927 5.50674 89.5244 6.5395 89.5244 8.0578V13.8382C89.5244 14.2389 89.5321 14.7245 89.5474 15.2948C89.5704 15.7264 89.6354 16.0193 89.7425 16.1734C89.8496 16.3276 90.0103 16.4547 90.2245 16.5549V17.0405H86.6669C86.5675 16.7861 86.4986 16.5472 86.4604 16.3237C86.4221 16.1002 86.3915 15.8459 86.3685 15.5607C85.9172 16.0539 85.3969 16.474 84.8078 16.8208C84.1039 17.2293 83.3083 17.4335 82.4208 17.4335C81.2885 17.4335 80.3513 17.1098 79.6092 16.4624C78.8747 15.8073 78.5075 14.8825 78.5075 13.6879C78.5075 12.1387 79.1004 11.0173 80.2862 10.3237C80.9366 9.94605 81.8929 9.6763 83.1553 9.51445L84.2684 9.37572Z" fill="white"/>
<path d="M92.382 13.5954H95.8592V17.0405H92.382V13.5954Z" fill="white"/>
<path d="M102.24 4.43931V12.0347C102.24 12.7514 102.324 13.2909 102.492 13.6532C102.791 14.2929 103.376 14.6127 104.248 14.6127C105.365 14.6127 106.13 14.158 106.543 13.2486C106.758 12.7553 106.865 12.104 106.865 11.2948V4.43931H110.181V17.0405H107.002V15.2601C106.972 15.2987 106.895 15.4143 106.773 15.6069C106.65 15.7996 106.505 15.9692 106.337 16.1156C105.824 16.578 105.327 16.894 104.845 17.0636C104.371 17.2331 103.812 17.3179 103.169 17.3179C101.318 17.3179 100.071 16.6474 99.4283 15.3064C99.0687 14.5665 98.8889 13.4759 98.8889 12.0347V4.43931H102.24Z" fill="white"/>
<path d="M112.637 7.12139V4.43931H122.782V7.17919L116.436 14.3353H123V17.0405H112.201V14.474L118.616 7.12139H112.637Z" fill="white"/>
</svg>
