<svg width="372" height="96" viewBox="0 0 372 96" fill="none" xmlns="http://www.w3.org/2000/svg">
<path fill-rule="evenodd" clip-rule="evenodd" d="M28.3194 14.4009C23.5901 14.4009 19.7067 15.8309 16.7701 18.6601C13.8182 21.5371 12.3217 25.5161 12.3217 30.486V93.0344H18.3728V30.486C18.3728 27.0144 19.2872 24.4603 21.0885 22.8953C22.9874 21.2433 25.3521 20.4386 28.3194 20.4386C31.1858 20.4386 33.5367 21.2484 35.4939 22.9022C37.3311 24.4757 38.2609 27.0281 38.2609 30.486V93.0344H44.3446V30.486C44.3446 25.5349 42.8378 21.5559 39.8584 18.6532C36.9287 15.8309 33.0453 14.4009 28.3194 14.4009Z" fill="#FFFFFE"/>
<path fill-rule="evenodd" clip-rule="evenodd" d="M66.4551 14.4009C61.7361 14.4009 57.8252 15.8274 54.8236 18.6532C51.8271 21.5405 50.3066 25.5212 50.3066 30.486V93.0344H56.3595V30.486C56.3595 27.0281 57.2893 24.4757 59.1163 22.909C61.0837 21.2484 63.4843 20.4386 66.4551 20.4386C69.318 20.4386 71.6313 21.2433 73.5319 22.8953C75.3332 24.4603 76.2459 27.0144 76.2459 30.486V93.0344H82.3296V30.486C82.3296 25.5417 80.8587 21.5679 77.9427 18.6601C75.0439 15.8343 71.1793 14.4009 66.4551 14.4009Z" fill="#FFFFFE"/>
<path fill-rule="evenodd" clip-rule="evenodd" d="M87.6444 10.1289C85.2644 7.65332 82.2799 5.67664 78.7731 4.25349C75.2202 2.80813 71.1912 2.10596 66.455 2.10596C62.0768 2.10596 58.1026 2.80642 54.6438 4.18686C51.7518 5.34007 49.2638 6.84522 47.2296 8.66815C45.1475 6.84351 42.7007 5.34178 39.9354 4.1954C36.5947 2.80813 32.6856 2.10596 28.3193 2.10596C23.5472 2.10596 19.3504 2.82864 15.8454 4.25349C12.3215 5.68518 9.34388 7.66528 7.00149 10.1357C4.64369 12.6181 2.86463 15.6745 1.71056 19.2247C0.575324 22.7185 0 26.5062 0 30.4852V93.0335H6.082V30.4852C6.082 27.2511 6.55287 24.2476 7.48092 21.5568C8.39185 18.9104 9.77879 16.5749 11.5921 14.6238C13.3951 12.7121 15.7204 11.1557 18.4908 10.0025C21.2836 8.87145 24.59 8.29741 28.3193 8.29741C32.1205 8.29741 35.5006 8.95688 38.3635 10.2553C41.2161 11.5503 43.8496 13.609 46.192 16.3767L47.37 17.7725L48.5515 16.3784C53.1558 10.9421 59.0135 8.29741 66.455 8.29741C70.157 8.29741 73.4634 8.87316 76.2681 9.99733C79.0471 11.1522 81.3347 12.7035 83.0727 14.6067C84.8603 16.5578 86.201 18.8352 87.1701 21.5568C88.0965 24.2476 88.5673 27.2511 88.5673 30.4852V93.0335H94.6202V30.4852C94.6202 26.4105 94.0432 22.6194 92.9097 19.2247C91.7625 15.695 89.9954 12.6386 87.6444 10.1289Z" fill="#FFFFFE"/>
<path fill-rule="evenodd" clip-rule="evenodd" d="M141.513 77.7584C143.338 79.4105 145.483 80.6969 147.893 81.5751C150.273 82.4361 152.797 82.8735 155.397 82.8735C158.004 82.8735 160.502 82.4361 162.82 81.5717C165.175 80.6986 167.298 79.4173 169.108 77.7738C170.948 76.1678 172.441 74.1125 173.541 71.678C174.637 69.2896 175.193 66.5543 175.193 63.5508V4.26904H169.109V63.5508C169.109 67.7981 167.907 71.092 165.536 73.3523C163.106 75.6929 159.788 76.8341 155.397 76.8341C150.97 76.8341 147.622 75.6929 145.156 73.3403C142.751 71.0749 141.533 67.7827 141.533 63.5508V4.26904H135.448V63.5508C135.448 66.527 135.991 69.2554 137.074 71.6882C138.23 74.1723 139.691 76.1644 141.513 77.7584Z" fill="#FFFFFE"/>
<path fill-rule="evenodd" clip-rule="evenodd" d="M181.431 63.5508C181.431 67.3265 180.679 70.8306 179.201 73.9536C177.717 77.0955 175.796 79.747 173.34 82.05C170.936 84.2779 168.142 86.0085 165.032 87.1959C158.918 89.5553 151.892 89.5502 145.663 87.1925C142.511 85.9983 139.699 84.2676 137.309 82.0569C134.848 79.7487 132.929 77.0989 131.441 73.9536C129.96 70.8272 129.21 67.3265 129.21 63.5508V4.26904H123.157V63.5508C123.157 68.1842 123.999 72.4758 125.66 76.3011C127.342 80.2083 129.662 83.5945 132.547 86.3451C135.456 89.1829 138.922 91.409 142.846 92.962C146.742 94.5047 150.966 95.2872 155.397 95.2872C159.81 95.2872 164.022 94.5047 167.918 92.962C171.83 91.4158 175.277 89.1846 178.155 86.3451C181.013 83.5586 183.338 80.1861 185.073 76.3062C186.754 72.4314 187.607 68.1398 187.607 63.5508V4.26904H181.431V63.5508Z" fill="#FFFFFE"/>
<path fill-rule="evenodd" clip-rule="evenodd" d="M271.502 10.9823C268.62 8.2026 265.178 6.01065 261.283 4.46962C253.512 1.32776 243.919 1.34655 236.2 4.46449C232.277 6.01577 228.816 8.20772 225.921 10.9703C223.005 13.7158 220.681 17.1156 219.013 21.0639C217.354 24.9199 216.51 29.2303 216.51 33.8739V93.0344H222.563V33.8739C222.563 30.0179 223.315 26.4746 224.794 23.3464C226.274 20.2148 228.244 17.5154 230.648 15.3217C233.047 13.1281 235.867 11.3923 239.039 10.1622C245.259 7.69348 252.25 7.68494 258.377 10.1656C261.481 11.3803 264.207 13.0683 266.702 15.3217C269.104 17.5137 271.072 20.2148 272.555 23.3464C274.034 26.4746 274.784 30.0179 274.784 33.8739V93.0344H280.962V33.8739C280.962 29.2525 280.097 24.9404 278.397 21.0639C276.715 17.1618 274.395 13.7705 271.502 10.9823Z" fill="#FFFFFE"/>
<path fill-rule="evenodd" clip-rule="evenodd" d="M262.493 19.5855C260.641 17.8719 258.516 16.565 256.177 15.6971C251.538 13.9767 246.02 13.9732 241.242 15.6954C238.852 16.5684 236.703 17.8771 234.864 19.577C232.974 21.2957 231.477 23.3783 230.419 25.7531C229.345 28.1312 228.801 30.8631 228.801 33.8734V93.0339H234.885V33.8734C234.885 29.5083 236.071 26.2536 238.515 23.9267C240.977 21.5793 244.326 20.4381 248.751 20.4381C253.143 20.4381 256.458 21.5776 258.88 23.9131C261.291 26.2639 262.463 29.5202 262.463 33.8734V93.0339H268.546V33.8734C268.546 30.9075 267.991 28.1757 266.901 25.7599C265.808 23.31 264.365 21.2872 262.493 19.5855Z" fill="#FFFFFE"/>
<path fill-rule="evenodd" clip-rule="evenodd" d="M365.793 64.262C365.793 68.1009 365.046 71.5981 363.562 74.6665C362.076 77.8117 360.154 80.4633 357.703 82.7612C355.305 84.9821 352.518 86.7128 349.431 87.907C343.215 90.2818 336.284 90.2784 330.024 87.9036C326.909 86.7248 324.108 84.9941 321.7 82.7663C319.236 80.4564 317.252 77.7332 315.801 74.6665C314.343 71.5844 313.603 68.0838 313.603 64.262V31.7551C313.603 27.853 314.343 24.3114 315.801 21.2276C317.264 18.1319 319.245 15.4325 321.688 13.203C324.104 10.9939 326.914 9.25814 330.044 8.04342C333.157 6.80821 336.426 6.1812 339.758 6.1812C343.128 6.1812 346.282 6.78941 349.412 8.04513C352.514 9.2701 355.305 11.0076 357.709 13.203C360.112 15.3983 362.081 18.096 363.569 21.2396C365.046 24.2977 365.793 27.8342 365.793 31.7551V64.262ZM369.432 18.9348C367.697 14.9866 365.38 11.5987 362.543 8.86348C359.656 6.0787 356.201 3.88674 352.29 2.34913C344.539 -0.784182 334.969 -0.780766 327.238 2.34571C323.337 3.88845 319.87 6.0787 316.92 8.85665C313.992 11.65 311.666 15.0464 310.017 18.9536C308.362 22.8797 307.521 27.185 307.521 31.7551V64.262C307.521 68.8235 308.362 73.1084 310.021 77.0105C311.678 80.8682 313.998 84.2509 316.914 87.0613C319.858 89.9025 323.329 92.1252 327.238 93.6714C331.14 95.2175 335.352 96 339.758 96C344.165 96 348.377 95.2175 352.275 93.6748C356.209 92.132 359.668 89.9025 362.548 87.0545C365.372 84.3056 367.685 80.9314 369.428 77.0258C371.135 73.1716 372 68.8765 372 64.262V31.7551C372 27.1303 371.135 22.8165 369.432 18.9348Z" fill="#FFFFFE"/>
<path fill-rule="evenodd" clip-rule="evenodd" d="M353.502 64.2624C353.502 68.4908 352.293 71.783 349.889 74.069C347.494 76.4078 344.179 77.544 339.758 77.544C335.352 77.544 332.017 76.4044 329.541 74.045C327.123 71.7916 325.895 68.5028 325.895 64.2624V31.7556C325.895 27.3819 327.089 24.1307 329.556 21.8072C332.017 19.4615 335.352 18.3219 339.758 18.3219C344.179 18.3219 347.494 19.4581 349.895 21.8021C352.323 24.1392 353.502 27.3939 353.502 31.7556V64.2624ZM353.655 17.4677C351.807 15.7593 349.66 14.4506 347.264 13.5758C342.489 11.852 336.965 11.8657 332.286 13.5758C329.936 14.4215 327.78 15.7285 325.863 17.4677C323.993 19.1984 322.512 21.2742 321.459 23.6352C320.385 26.0134 319.839 28.7452 319.839 31.7556V64.2624C319.839 67.2368 320.382 69.9704 321.459 72.3861C322.543 74.7797 324.031 76.8281 325.883 78.4785C327.791 80.1784 329.888 81.4222 332.28 82.2901C334.631 83.1477 337.15 83.5834 339.758 83.5834C342.355 83.5834 344.879 83.1494 347.273 82.2901C349.677 81.4068 351.823 80.1203 353.634 78.4785C355.489 76.8247 356.978 74.7763 358.064 72.3742C359.136 69.9635 359.678 67.2351 359.678 64.2624V31.7556C359.678 28.7487 359.136 26.0203 358.064 23.6404C357.009 21.2776 355.528 19.2018 353.655 17.4677Z" fill="#FFFFFE"/>
</svg>
